{
  "source": "C:\\Users\\Peter\\Desktop\\stuff\\MIUN\\quantitative_research\\video_compression\\videos\\BVI-HD\\BVI-HD_CDVL_videos\\ORIG\\Surfers_1920x1080_30fps.mp4",
  "output": "C:\\Users\\Peter\\Desktop\\stuff\\MIUN\\quantitative_research\\video_compression\\compressed_videos\\BVI-HD\\hevc\\1\\Surfers_1920x1080_30fps_hevc.mp4",
  "codec": "hevc",
  "ok": "Input #0, mov,mp4,m4a,3gp,3g2,mj2, from 'C:\\Users\\Peter\\Desktop\\stuff\\MIUN\\quantitative_research\\video_compression\\videos\\BVI-HD\\BVI-HD_CDVL_videos\\ORIG\\Surfers_1920x1080_30fps.mp4':\n  Metadata:\n    major_brand     : isom\n    minor_version   : 512\n    compatible_brands: isomiso2avc1mp41\n    encoder         : Lavf54.28.101\n  Duration: 00:00:05.00, start: 0.000000, bitrate: 232762 kb/s\n  Stream #0:0[0x1](und): Video: h264 (High 4:4:4 Predictive) (avc1 / 0x31637661), yuv420p(progressive), 1920x1080, 232759 kb/s, 30 fps, 30 tbr, 30 tbn (default)\n    Metadata:\n      handler_name    : VideoHandler\n      vendor_id       : [0][0][0][0]\n[out#0/mp4 @ 000001d19390abc0] Codec AVOption b:a (set bitrate (in bits/s)) has not been used for any stream. The most likely reason is either wrong type (e.g. a video option with no video streams) or that it is a private option of some decoder which was not actually used for any stream.\nStream mapping:\n  Stream #0:0 -> #0:0 (h264 (native) -> hevc (libx265))\nPress [q] to stop, [?] for help\n[libx265 @ 000001d1955ba480] Unknown option: \"aq-mode.\nx265 [info]: HEVC encoder version 4.1+190-8f11c33ac\nx265 [info]: build info [Windows][GCC 15.1.0][64 bit] 10bit\nx265 [info]: using cpu capabilities: MMX2 SSE2Fast LZCNT SSSE3 SSE4.2 AVX FMA3 BMI2 AVX2\nx265 [info]: Main 10 profile, Level-4 (Main tier)\nx265 [info]: Thread pool created using 12 threads\nx265 [info]: Slices                              : 1\nx265 [info]: frame threads / pool features       : 3 / wpp(17 rows)\nx265 [info]: Coding QT: max CU size, min CU size : 64 / 8\nx265 [info]: Residual QT: max TU size, max depth : 32 / 1 inter / 1 intra\nx265 [info]: ME / range / subpel / merge         : star / 57 / 3 / 3\nx265 [info]: Keyframe min / max / scenecut / bias  : 25 / 250 / 40 / 5.00 \nx265 [info]: Lookahead / bframes / badapt        : 25 / 4 / 2\nx265 [info]: b-pyramid / weightp / weightb       : 1 / 1 / 0\nx265 [info]: References / ref-limit  cu / depth  : 4 / on / on\nx265 [info]: AQ: mode / str / qg-size / cu-tree  : 2 / 1.0 / 32 / 1\nx265 [info]: Rate Control / qCompress            : ABR-1000 kbps / 0.60\nx265 [info]: VBV/HRD buffer / max-rate / init    : 1000 / 1000 / 0.750\nx265 [info]: tools: rect limit-modes rd=4 psy-rd=2.00 rdoq=2 psy-rdoq=1.00\nx265 [info]: tools: rskip mode=1 signhide tmvp strong-intra-smoothing lslices=4\nx265 [info]: tools: deblock sao dhdr10-info\nOutput #0, mp4, to 'C:\\Users\\Peter\\Desktop\\stuff\\MIUN\\quantitative_research\\video_compression\\compressed_videos\\BVI-HD\\hevc\\1\\Surfers_1920x1080_30fps_hevc.mp4':\n  Metadata:\n    major_brand     : isom\n    minor_version   : 512\n    compatible_brands: isomiso2avc1mp41\n    encoder         : Lavf62.3.100\n  Stream #0:0(und): Video: hevc (hev1 / 0x31766568), yuv420p10le(tv, progressive), 1920x1080, q=2-31, 1000 kb/s, 30 fps, 15360 tbn (default)\n    Metadata:\n      encoder         : Lavc62.11.100 libx265\n      handler_name    : VideoHandler\n      vendor_id       : [0][0][0][0]\n    Side data:\n      cpb: bitrate max/min/avg: 1000000/0/1000000 buffer size: 1000000 vbv_delay: N/A\nframe=    0 fps=0.0 q=0.0 size=       0KiB time=N/A bitrate=N/A speed=N/A elapsed=0:00:01.06    \nframe=    0 fps=0.0 q=0.0 size=       0KiB time=N/A bitrate=N/A speed=N/A elapsed=0:00:01.66    \nframe=    0 fps=0.0 q=0.0 size=       0KiB time=N/A bitrate=N/A speed=N/A elapsed=0:00:02.22    \nframe=    0 fps=0.0 q=0.0 size=       0KiB time=N/A bitrate=N/A speed=N/A elapsed=0:00:02.73    \nframe=    0 fps=0.0 q=0.0 size=       0KiB time=N/A bitrate=N/A speed=N/A elapsed=0:00:03.25    \nframe=    0 fps=0.0 q=0.0 size=       0KiB time=N/A bitrate=N/A speed=N/A elapsed=0:00:03.76    \nframe=    0 fps=0.0 q=0.0 size=       0KiB time=N/A bitrate=N/A speed=N/A elapsed=0:00:04.27    \nframe=    0 fps=0.0 q=0.0 size=       0KiB time=N/A bitrate=N/A speed=N/A elapsed=0:00:04.78    \nframe=    0 fps=0.0 q=0.0 size=       0KiB time=N/A bitrate=N/A speed=N/A elapsed=0:00:05.32    \nframe=    0 fps=0.0 q=0.0 size=       0KiB time=N/A bitrate=N/A speed=N/A elapsed=0:00:05.85    \nframe=    0 fps=0.0 q=0.0 size=       0KiB time=N/A bitrate=N/A speed=N/A elapsed=0:00:06.37    \nframe=    0 fps=0.0 q=0.0 size=       0KiB time=N/A bitrate=N/A speed=N/A elapsed=0:00:06.89    \nframe=    0 fps=0.0 q=0.0 size=       0KiB time=N/A bitrate=N/A speed=N/A elapsed=0:00:07.43    \nframe=    1 fps=0.1 q=43.8 size=       0KiB time=-00:00:00.03 bitrate=N/A speed=N/A elapsed=0:00:07.95    \nframe=    1 fps=0.1 q=43.8 size=       0KiB time=-00:00:00.03 bitrate=N/A speed=N/A elapsed=0:00:08.45    \nframe=    2 fps=0.2 q=48.4 size=       0KiB time=00:00:00.00 bitrate=N/A speed=   0x elapsed=0:00:08.97    \nframe=    3 fps=0.3 q=50.6 size=       0KiB time=00:00:00.03 bitrate=  10.6kbits/s speed=0.00351x elapsed=0:00:09.50    \nframe=    4 fps=0.4 q=51.0 size=       0KiB time=00:00:00.06 bitrate=   5.3kbits/s speed=0.00665x elapsed=0:00:10.02    \nframe=    4 fps=0.4 q=51.0 size=       0KiB time=00:00:00.06 bitrate=   5.3kbits/s speed=0.00631x elapsed=0:00:10.56    \nframe=    4 fps=0.4 q=51.0 size=       0KiB time=00:00:00.06 bitrate=   5.3kbits/s speed=0.00601x elapsed=0:00:11.08    \nframe=    4 fps=0.3 q=51.0 size=       0KiB time=00:00:00.06 bitrate=   5.3kbits/s speed=0.00574x elapsed=0:00:11.61    \nframe=    5 fps=0.4 q=50.0 size=       0KiB time=00:00:00.10 bitrate=   3.5kbits/s speed=0.00824x elapsed=0:00:12.13    \nframe=    5 fps=0.4 q=50.0 size=       0KiB time=00:00:00.10 bitrate=   3.5kbits/s speed=0.00789x elapsed=0:00:12.66    \nframe=    6 fps=0.5 q=43.6 size=       0KiB time=00:00:00.13 bitrate=   2.6kbits/s speed=0.0101x elapsed=0:00:13.18    \nframe=    6 fps=0.4 q=43.6 size=       0KiB time=00:00:00.13 bitrate=   2.6kbits/s speed=0.00972x elapsed=0:00:13.71    \nframe=    6 fps=0.4 q=43.6 size=       0KiB time=00:00:00.13 bitrate=   2.6kbits/s speed=0.00937x elapsed=0:00:14.23    \nframe=    7 fps=0.5 q=45.6 size=       0KiB time=00:00:00.16 bitrate=   2.1kbits/s speed=0.0113x elapsed=0:00:14.75    \nframe=    8 fps=0.5 q=44.6 size=       0KiB time=00:00:00.20 bitrate=   1.8kbits/s speed=0.0131x elapsed=0:00:15.26    \nframe=    8 fps=0.5 q=44.6 size=       0KiB time=00:00:00.20 bitrate=   1.8kbits/s speed=0.0127x elapsed=0:00:15.77    \nframe=    8 fps=0.5 q=44.6 size=       0KiB time=00:00:00.20 bitrate=   1.8kbits/s speed=0.0123x elapsed=0:00:16.30    \nframe=    8 fps=0.5 q=44.6 size=       0KiB time=00:00:00.20 bitrate=   1.8kbits/s speed=0.0119x elapsed=0:00:16.83    \nframe=    9 fps=0.5 q=44.9 size=       0KiB time=00:00:00.23 bitrate=   1.5kbits/s speed=0.0134x elapsed=0:00:17.36    \nframe=    9 fps=0.5 q=44.9 size=       0KiB time=00:00:00.23 bitrate=   1.5kbits/s speed=0.013x elapsed=0:00:17.88    \nframe=   10 fps=0.5 q=40.3 size=       0KiB time=00:00:00.26 bitrate=   1.3kbits/s speed=0.0145x elapsed=0:00:18.41    \nframe=   10 fps=0.5 q=40.3 size=       0KiB time=00:00:00.26 bitrate=   1.3kbits/s speed=0.0141x elapsed=0:00:18.93    \nframe=   11 fps=0.6 q=44.5 size=       0KiB time=00:00:00.30 bitrate=   1.2kbits/s speed=0.0154x elapsed=0:00:19.48    \nframe=   11 fps=0.5 q=44.5 size=       0KiB time=00:00:00.30 bitrate=   1.2kbits/s speed=0.0149x elapsed=0:00:20.07    \nframe=   11 fps=0.5 q=44.5 size=       0KiB time=00:00:00.30 bitrate=   1.2kbits/s speed=0.0145x elapsed=0:00:20.64    \nframe=   12 fps=0.6 q=45.3 size=       0KiB time=00:00:00.33 bitrate=   1.1kbits/s speed=0.0157x elapsed=0:00:21.17    \nframe=   12 fps=0.6 q=45.3 size=       0KiB time=00:00:00.33 bitrate=   1.1kbits/s speed=0.0154x elapsed=0:00:21.69    \nframe=   13 fps=0.6 q=45.4 size=       0KiB time=00:00:00.36 bitrate=   1.0kbits/s speed=0.0165x elapsed=0:00:22.20    \nframe=   14 fps=0.6 q=45.7 size=       0KiB time=00:00:00.40 bitrate=   0.9kbits/s speed=0.0176x elapsed=0:00:22.73    \nframe=   14 fps=0.6 q=45.7 size=       0KiB time=00:00:00.40 bitrate=   0.9kbits/s speed=0.0172x elapsed=0:00:23.24    \nframe=   14 fps=0.6 q=45.7 size=       0KiB time=00:00:00.40 bitrate=   0.9kbits/s speed=0.0168x elapsed=0:00:23.75    \nframe=   14 fps=0.6 q=45.7 size=       0KiB time=00:00:00.40 bitrate=   0.9kbits/s speed=0.0165x elapsed=0:00:24.27    \nframe=   15 fps=0.6 q=41.3 size=       0KiB time=00:00:00.43 bitrate=   0.8kbits/s speed=0.0175x elapsed=0:00:24.79    \nframe=   16 fps=0.6 q=43.1 size=       0KiB time=00:00:00.46 bitrate=   0.8kbits/s speed=0.0184x elapsed=0:00:25.34    \nframe=   16 fps=0.6 q=43.1 size=       0KiB time=00:00:00.46 bitrate=   0.8kbits/s speed=0.018x elapsed=0:00:25.85    \nframe=   17 fps=0.6 q=45.9 size=       0KiB time=00:00:00.50 bitrate=   0.7kbits/s speed=0.0189x elapsed=0:00:26.38    \nframe=   17 fps=0.6 q=45.9 size=       0KiB time=00:00:00.50 bitrate=   0.7kbits/s speed=0.0186x elapsed=0:00:26.94    \nframe=   17 fps=0.6 q=45.9 size=       0KiB time=00:00:00.50 bitrate=   0.7kbits/s speed=0.0182x elapsed=0:00:27.45    \nframe=   18 fps=0.6 q=44.9 size=       0KiB time=00:00:00.53 bitrate=   0.7kbits/s speed=0.0191x elapsed=0:00:27.97    \nframe=   18 fps=0.6 q=44.9 size=       0KiB time=00:00:00.53 bitrate=   0.7kbits/s speed=0.0187x elapsed=0:00:28.49    \nframe=   18 fps=0.6 q=44.9 size=       0KiB time=00:00:00.53 bitrate=   0.7kbits/s speed=0.0184x elapsed=0:00:29.03    \nframe=   19 fps=0.6 q=42.0 size=       0KiB time=00:00:00.56 bitrate=   0.6kbits/s speed=0.0192x elapsed=0:00:29.57    \nframe=   20 fps=0.7 q=43.4 size=       0KiB time=00:00:00.60 bitrate=   0.6kbits/s speed=0.0199x elapsed=0:00:30.11    \nframe=   20 fps=0.7 q=43.4 size=       0KiB time=00:00:00.60 bitrate=   0.6kbits/s speed=0.0196x elapsed=0:00:30.62    \nframe=   21 fps=0.7 q=45.4 size=       0KiB time=00:00:00.63 bitrate=   0.6kbits/s speed=0.0203x elapsed=0:00:31.14    \nframe=   21 fps=0.7 q=45.4 size=       0KiB time=00:00:00.63 bitrate=   0.6kbits/s speed=0.02x elapsed=0:00:31.65    \nframe=   21 fps=0.7 q=45.4 size=       0KiB time=00:00:00.63 bitrate=   0.6kbits/s speed=0.0197x elapsed=0:00:32.17    \nframe=   22 fps=0.7 q=45.8 size=       0KiB time=00:00:00.66 bitrate=   0.5kbits/s speed=0.0204x elapsed=0:00:32.70    \nframe=   22 fps=0.7 q=45.8 size=       0KiB time=00:00:00.66 bitrate=   0.5kbits/s speed=0.0201x elapsed=0:00:33.22    \nframe=   22 fps=0.7 q=45.8 size=       0KiB time=00:00:00.66 bitrate=   0.5kbits/s speed=0.0197x elapsed=0:00:33.76    \nframe=   24 fps=0.7 q=43.8 size=       0KiB time=00:00:00.73 bitrate=   0.5kbits/s speed=0.0214x elapsed=0:00:34.28    \nframe=   24 fps=0.7 q=43.8 size=       0KiB time=00:00:00.73 bitrate=   0.5kbits/s speed=0.0211x elapsed=0:00:34.79    \nframe=   25 fps=0.7 q=45.5 size=       0KiB time=00:00:00.76 bitrate=   0.5kbits/s speed=0.0217x elapsed=0:00:35.31    \nframe=   25 fps=0.7 q=45.5 size=       0KiB time=00:00:00.76 bitrate=   0.5kbits/s speed=0.0214x elapsed=0:00:35.85    \nframe=   25 fps=0.7 q=45.5 size=       0KiB time=00:00:00.76 bitrate=   0.5kbits/s speed=0.0211x elapsed=0:00:36.37    \nframe=   26 fps=0.7 q=45.9 size=       0KiB time=00:00:00.80 bitrate=   0.4kbits/s speed=0.0217x elapsed=0:00:36.89    \nframe=   26 fps=0.7 q=45.9 size=       0KiB time=00:00:00.80 bitrate=   0.4kbits/s speed=0.0214x elapsed=0:00:37.41    \nframe=   28 fps=0.7 q=44.0 size=       0KiB time=00:00:00.86 bitrate=   0.4kbits/s speed=0.0228x elapsed=0:00:37.93    \nframe=   28 fps=0.7 q=44.0 size=       0KiB time=00:00:00.86 bitrate=   0.4kbits/s speed=0.0225x elapsed=0:00:38.45    \nframe=   29 fps=0.7 q=46.0 size=       0KiB time=00:00:00.90 bitrate=   0.4kbits/s speed=0.0231x elapsed=0:00:38.98    \nframe=   29 fps=0.7 q=46.0 size=       0KiB time=00:00:00.90 bitrate=   0.4kbits/s speed=0.0228x elapsed=0:00:39.49    \nframe=   30 fps=0.7 q=46.0 size=       0KiB time=00:00:00.93 bitrate=   0.4kbits/s speed=0.0233x elapsed=0:00:40.02    \nframe=   30 fps=0.7 q=46.0 size=       0KiB time=00:00:00.93 bitrate=   0.4kbits/s speed=0.023x elapsed=0:00:40.53    \nframe=   30 fps=0.7 q=46.0 size=       0KiB time=00:00:00.93 bitrate=   0.4kbits/s speed=0.0227x elapsed=0:00:41.07    \nframe=   30 fps=0.7 q=46.0 size=       0KiB time=00:00:00.93 bitrate=   0.4kbits/s speed=0.0224x elapsed=0:00:41.59    \nframe=   32 fps=0.8 q=44.1 size=       0KiB time=00:00:01.00 bitrate=   0.4kbits/s speed=0.0237x elapsed=0:00:42.14    \nframe=   32 fps=0.8 q=44.1 size=       0KiB time=00:00:01.00 bitrate=   0.4kbits/s speed=0.0234x elapsed=0:00:42.65    \nframe=   32 fps=0.7 q=44.1 size=       0KiB time=00:00:01.00 bitrate=   0.4kbits/s speed=0.0232x elapsed=0:00:43.19    \nframe=   33 fps=0.8 q=45.8 size=       0KiB time=00:00:01.03 bitrate=   0.3kbits/s speed=0.0236x elapsed=0:00:43.73    \nframe=   33 fps=0.7 q=45.8 size=       0KiB time=00:00:01.03 bitrate=   0.3kbits/s speed=0.0233x elapsed=0:00:44.26    \nframe=   34 fps=0.8 q=46.0 size=       0KiB time=00:00:01.06 bitrate=   0.3kbits/s speed=0.0238x elapsed=0:00:44.81    \nframe=   34 fps=0.8 q=46.0 size=       0KiB time=00:00:01.06 bitrate=   0.3kbits/s speed=0.0235x elapsed=0:00:45.33    \nframe=   36 fps=0.8 q=43.7 size=       0KiB time=00:00:01.13 bitrate=   0.3kbits/s speed=0.0247x elapsed=0:00:45.83    \nframe=   36 fps=0.8 q=43.7 size=       0KiB time=00:00:01.13 bitrate=   0.3kbits/s speed=0.0244x elapsed=0:00:46.35    \nframe=   37 fps=0.8 q=45.6 size=       0KiB time=00:00:01.16 bitrate=   0.3kbits/s speed=0.0249x elapsed=0:00:46.87    \nframe=   38 fps=0.8 q=45.7 size=       0KiB time=00:00:01.20 bitrate=   0.3kbits/s speed=0.0253x elapsed=0:00:47.39    \nframe=   38 fps=0.8 q=45.7 size=       0KiB time=00:00:01.20 bitrate=   0.3kbits/s speed=0.0251x elapsed=0:00:47.89    \nframe=   39 fps=0.8 q=41.0 size=       0KiB time=00:00:01.23 bitrate=   0.3kbits/s speed=0.0255x elapsed=0:00:48.43    \nframe=   39 fps=0.8 q=41.0 size=       0KiB time=00:00:01.23 bitrate=   0.3kbits/s speed=0.0252x elapsed=0:00:49.01    \nframe=   40 fps=0.8 q=43.7 size=       0KiB time=00:00:01.26 bitrate=   0.3kbits/s speed=0.0256x elapsed=0:00:49.54    \nframe=   40 fps=0.8 q=43.7 size=       0KiB time=00:00:01.26 bitrate=   0.3kbits/s speed=0.0253x elapsed=0:00:50.06    \nframe=   40 fps=0.8 q=43.7 size=       0KiB time=00:00:01.26 bitrate=   0.3kbits/s speed=0.025x elapsed=0:00:50.59    \nframe=   40 fps=0.8 q=43.7 size=       0KiB time=00:00:01.26 bitrate=   0.3kbits/s speed=0.0248x elapsed=0:00:51.13    \nframe=   41 fps=0.8 q=45.8 size=       0KiB time=00:00:01.30 bitrate=   0.3kbits/s speed=0.0252x elapsed=0:00:51.67    \nframe=   42 fps=0.8 q=42.1 size=       0KiB time=00:00:01.33 bitrate=   0.3kbits/s speed=0.0255x elapsed=0:00:52.19    \nframe=   43 fps=0.8 q=43.7 size=       0KiB time=00:00:01.36 bitrate=   0.3kbits/s speed=0.0259x elapsed=0:00:52.71    \nframe=   44 fps=0.8 q=45.4 size=       0KiB time=00:00:01.40 bitrate=   0.3kbits/s speed=0.0263x elapsed=0:00:53.23    \nframe=   44 fps=0.8 q=45.4 size=       0KiB time=00:00:01.40 bitrate=   0.3kbits/s speed=0.026x elapsed=0:00:53.76    \nframe=   44 fps=0.8 q=45.4 size=       0KiB time=00:00:01.40 bitrate=   0.3kbits/s speed=0.0258x elapsed=0:00:54.28    \nframe=   44 fps=0.8 q=45.4 size=       0KiB time=00:00:01.40 bitrate=   0.3kbits/s speed=0.0255x elapsed=0:00:54.80    \nframe=   45 fps=0.8 q=45.8 size=       0KiB time=00:00:01.43 bitrate=   0.2kbits/s speed=0.0259x elapsed=0:00:55.32    \nframe=   45 fps=0.8 q=45.8 size=       0KiB time=00:00:01.43 bitrate=   0.2kbits/s speed=0.0256x elapsed=0:00:55.88    \nframe=   46 fps=0.8 q=42.2 size=       0KiB time=00:00:01.46 bitrate=   0.2kbits/s speed=0.026x elapsed=0:00:56.41    \nframe=   47 fps=0.8 q=43.9 size=       0KiB time=00:00:01.50 bitrate=   0.2kbits/s speed=0.0263x elapsed=0:00:56.93    \nframe=   47 fps=0.8 q=43.9 size=       0KiB time=00:00:01.50 bitrate=   0.2kbits/s speed=0.0261x elapsed=0:00:57.47    \nframe=   48 fps=0.8 q=45.8 size=       0KiB time=00:00:01.53 bitrate=   0.2kbits/s speed=0.0264x elapsed=0:00:57.98    \nframe=   48 fps=0.8 q=45.8 size=       0KiB time=00:00:01.53 bitrate=   0.2kbits/s speed=0.0262x elapsed=0:00:58.51    \nframe=   49 fps=0.8 q=45.8 size=       0KiB time=00:00:01.56 bitrate=   0.2kbits/s speed=0.0265x elapsed=0:00:59.03    \nframe=   49 fps=0.8 q=45.8 size=       0KiB time=00:00:01.56 bitrate=   0.2kbits/s speed=0.0263x elapsed=0:00:59.55    \nframe=   49 fps=0.8 q=45.8 size=       0KiB time=00:00:01.56 bitrate=   0.2kbits/s speed=0.0261x elapsed=0:01:00.09    \nframe=   49 fps=0.8 q=45.8 size=       0KiB time=00:00:01.56 bitrate=   0.2kbits/s speed=0.0258x elapsed=0:01:00.63    \nframe=   49 fps=0.8 q=45.8 size=       0KiB time=00:00:01.56 bitrate=   0.2kbits/s speed=0.0256x elapsed=0:01:01.15    \nframe=   50 fps=0.8 q=42.3 size=       0KiB time=00:00:01.60 bitrate=   0.2kbits/s speed=0.0259x elapsed=0:01:01.69    \nframe=   51 fps=0.8 q=44.3 size=       0KiB time=00:00:01.63 bitrate=   0.2kbits/s speed=0.0263x elapsed=0:01:02.21    \nframe=   52 fps=0.8 q=45.7 size=       0KiB time=00:00:01.66 bitrate=   0.2kbits/s speed=0.0266x elapsed=0:01:02.73    \nframe=   52 fps=0.8 q=45.7 size=       0KiB time=00:00:01.66 bitrate=   0.2kbits/s speed=0.0263x elapsed=0:01:03.26    \nframe=   53 fps=0.8 q=45.6 size=       0KiB time=00:00:01.70 bitrate=   0.2kbits/s speed=0.0267x elapsed=0:01:03.77    \nframe=   53 fps=0.8 q=45.6 size=       0KiB time=00:00:01.70 bitrate=   0.2kbits/s speed=0.0264x elapsed=0:01:04.31    \nframe=   53 fps=0.8 q=45.6 size=       0KiB time=00:00:01.70 bitrate=   0.2kbits/s speed=0.0262x elapsed=0:01:04.83    \nframe=   54 fps=0.8 q=45.7 size=       0KiB time=00:00:01.73 bitrate=   0.2kbits/s speed=0.0265x elapsed=0:01:05.35    \nframe=   54 fps=0.8 q=45.7 size=       0KiB time=00:00:01.73 bitrate=   0.2kbits/s speed=0.0263x elapsed=0:01:05.87    \nframe=   54 fps=0.8 q=45.7 size=       0KiB time=00:00:01.73 bitrate=   0.2kbits/s speed=0.0261x elapsed=0:01:06.43    \nframe=   54 fps=0.8 q=45.7 size=       0KiB time=00:00:01.73 bitrate=   0.2kbits/s speed=0.0259x elapsed=0:01:07.00    \nframe=   55 fps=0.8 q=42.5 size=       0KiB time=00:00:01.76 bitrate=   0.2kbits/s speed=0.0262x elapsed=0:01:07.53    \nframe=   55 fps=0.8 q=42.5 size=       0KiB time=00:00:01.76 bitrate=   0.2kbits/s speed=0.026x elapsed=0:01:08.05    \nframe=   56 fps=0.8 q=43.9 size=       0KiB time=00:00:01.80 bitrate=   0.2kbits/s speed=0.0262x elapsed=0:01:08.57    \nframe=   56 fps=0.8 q=43.9 size=       0KiB time=00:00:01.80 bitrate=   0.2kbits/s speed=0.026x elapsed=0:01:09.13    \nframe=   56 fps=0.8 q=43.9 size=       0KiB time=00:00:01.80 bitrate=   0.2kbits/s speed=0.0258x elapsed=0:01:09.65    \nframe=   57 fps=0.8 q=45.8 size=       0KiB time=00:00:01.83 bitrate=   0.2kbits/s speed=0.0261x elapsed=0:01:10.18    \nframe=   57 fps=0.8 q=45.8 size=       0KiB time=00:00:01.83 bitrate=   0.2kbits/s speed=0.0259x elapsed=0:01:10.69    \nframe=   58 fps=0.8 q=42.3 size=       0KiB time=00:00:01.86 bitrate=   0.2kbits/s speed=0.0262x elapsed=0:01:11.23    \nframe=   60 fps=0.8 q=45.8 size=       0KiB time=00:00:01.93 bitrate=   0.2kbits/s speed=0.0269x elapsed=0:01:11.75    \nframe=   60 fps=0.8 q=45.8 size=       0KiB time=00:00:01.93 bitrate=   0.2kbits/s speed=0.0267x elapsed=0:01:12.28    \nframe=   61 fps=0.8 q=45.7 size=       0KiB time=00:00:01.96 bitrate=   0.2kbits/s speed=0.027x elapsed=0:01:12.82    \nframe=   61 fps=0.8 q=45.7 size=       0KiB time=00:00:01.96 bitrate=   0.2kbits/s speed=0.0268x elapsed=0:01:13.38    \nframe=   61 fps=0.8 q=45.7 size=       0KiB time=00:00:01.96 bitrate=   0.2kbits/s speed=0.0266x elapsed=0:01:13.92    \nframe=   61 fps=0.8 q=45.7 size=       0KiB time=00:00:01.96 bitrate=   0.2kbits/s speed=0.0264x elapsed=0:01:14.47    \nframe=   61 fps=0.8 q=45.7 size=       0KiB time=00:00:01.96 bitrate=   0.2kbits/s speed=0.0262x elapsed=0:01:15.07    \nframe=   61 fps=0.8 q=45.7 size=       0KiB time=00:00:01.96 bitrate=   0.2kbits/s speed=0.026x elapsed=0:01:15.67    \nframe=   61 fps=0.8 q=45.7 size=       0KiB time=00:00:01.96 bitrate=   0.2kbits/s speed=0.0258x elapsed=0:01:16.24    \nframe=   61 fps=0.8 q=45.7 size=       0KiB time=00:00:01.96 bitrate=   0.2kbits/s speed=0.0256x elapsed=0:01:16.82    \nframe=   61 fps=0.8 q=45.7 size=       0KiB time=00:00:01.96 bitrate=   0.2kbits/s speed=0.0254x elapsed=0:01:17.36    \nframe=   61 fps=0.8 q=45.7 size=       0KiB time=00:00:01.96 bitrate=   0.2kbits/s speed=0.0252x elapsed=0:01:17.93    \nframe=   61 fps=0.8 q=45.7 size=       0KiB time=00:00:01.96 bitrate=   0.2kbits/s speed=0.0251x elapsed=0:01:18.46    \nframe=   62 fps=0.8 q=42.5 size=       0KiB time=00:00:02.00 bitrate=   0.2kbits/s speed=0.0253x elapsed=0:01:18.98    \nframe=   62 fps=0.8 q=42.5 size=       0KiB time=00:00:02.00 bitrate=   0.2kbits/s speed=0.0251x elapsed=0:01:19.52    \nframe=   62 fps=0.8 q=42.5 size=       0KiB time=00:00:02.00 bitrate=   0.2kbits/s speed=0.025x elapsed=0:01:20.04    \nframe=   63 fps=0.8 q=43.8 size=     256KiB time=00:00:02.03 bitrate=1031.6kbits/s speed=0.0252x elapsed=0:01:20.58    \nframe=   63 fps=0.8 q=43.8 size=     256KiB time=00:00:02.03 bitrate=1031.6kbits/s speed=0.0251x elapsed=0:01:21.09    \nframe=   65 fps=0.8 q=45.8 size=     256KiB time=00:00:02.10 bitrate= 998.8kbits/s speed=0.0257x elapsed=0:01:21.61    \nframe=   65 fps=0.8 q=45.8 size=     256KiB time=00:00:02.10 bitrate= 998.8kbits/s speed=0.0256x elapsed=0:01:22.14    \nframe=   65 fps=0.8 q=45.8 size=     256KiB time=00:00:02.10 bitrate= 998.8kbits/s speed=0.0254x elapsed=0:01:22.67    \nframe=   66 fps=0.8 q=42.4 size=     256KiB time=00:00:02.13 bitrate= 983.2kbits/s speed=0.0256x elapsed=0:01:23.19    \nframe=   66 fps=0.8 q=42.4 size=     256KiB time=00:00:02.13 bitrate= 983.2kbits/s speed=0.0255x elapsed=0:01:23.71    \nframe=   67 fps=0.8 q=43.9 size=     256KiB time=00:00:02.16 bitrate= 968.1kbits/s speed=0.0257x elapsed=0:01:24.23    \nframe=   68 fps=0.8 q=45.8 size=     256KiB time=00:00:02.20 bitrate= 953.4kbits/s speed=0.026x elapsed=0:01:24.74    \nframe=   68 fps=0.8 q=45.8 size=     256KiB time=00:00:02.20 bitrate= 953.4kbits/s speed=0.0258x elapsed=0:01:25.29    \nframe=   69 fps=0.8 q=41.7 size=     256KiB time=00:00:02.23 bitrate= 939.2kbits/s speed=0.026x elapsed=0:01:25.81    \nframe=   69 fps=0.8 q=41.7 size=     256KiB time=00:00:02.23 bitrate= 939.2kbits/s speed=0.0259x elapsed=0:01:26.33    \nframe=   69 fps=0.8 q=41.7 size=     256KiB time=00:00:02.23 bitrate= 939.2kbits/s speed=0.0257x elapsed=0:01:26.86    \nframe=   70 fps=0.8 q=43.2 size=     256KiB time=00:00:02.26 bitrate= 925.4kbits/s speed=0.0259x elapsed=0:01:27.38    \nframe=   71 fps=0.8 q=45.5 size=     256KiB time=00:00:02.30 bitrate= 912.0kbits/s speed=0.0262x elapsed=0:01:27.90    \nframe=   72 fps=0.8 q=42.1 size=     256KiB time=00:00:02.33 bitrate= 898.9kbits/s speed=0.0264x elapsed=0:01:28.42    \nframe=   72 fps=0.8 q=42.1 size=     256KiB time=00:00:02.33 bitrate= 898.9kbits/s speed=0.0262x elapsed=0:01:28.93    \nframe=   72 fps=0.8 q=42.1 size=     256KiB time=00:00:02.33 bitrate= 898.9kbits/s speed=0.0261x elapsed=0:01:29.46    \nframe=   73 fps=0.8 q=43.8 size=     256KiB time=00:00:02.36 bitrate= 886.3kbits/s speed=0.0263x elapsed=0:01:30.02    \nframe=   73 fps=0.8 q=43.8 size=     256KiB time=00:00:02.36 bitrate= 886.3kbits/s speed=0.0261x elapsed=0:01:30.56    \nframe=   75 fps=0.8 q=45.7 size=     256KiB time=00:00:02.43 bitrate= 862.0kbits/s speed=0.0267x elapsed=0:01:31.10    \nframe=   75 fps=0.8 q=45.7 size=     256KiB time=00:00:02.43 bitrate= 862.0kbits/s speed=0.0266x elapsed=0:01:31.61    \nframe=   75 fps=0.8 q=45.7 size=     256KiB time=00:00:02.43 bitrate= 862.0kbits/s speed=0.0264x elapsed=0:01:32.15    \nframe=   75 fps=0.8 q=45.7 size=     256KiB time=00:00:02.43 bitrate= 862.0kbits/s speed=0.0262x elapsed=0:01:32.70    \nframe=   76 fps=0.8 q=42.3 size=     256KiB time=00:00:02.46 bitrate= 850.3kbits/s speed=0.0265x elapsed=0:01:33.23    \nframe=   76 fps=0.8 q=42.3 size=     256KiB time=00:00:02.46 bitrate= 850.3kbits/s speed=0.0263x elapsed=0:01:33.76    \nframe=   77 fps=0.8 q=44.0 size=     256KiB time=00:00:02.50 bitrate= 839.0kbits/s speed=0.0265x elapsed=0:01:34.29    \nframe=   77 fps=0.8 q=44.0 size=     256KiB time=00:00:02.50 bitrate= 839.0kbits/s speed=0.0264x elapsed=0:01:34.85    \nframe=   78 fps=0.8 q=45.7 size=     256KiB time=00:00:02.53 bitrate= 828.0kbits/s speed=0.0266x elapsed=0:01:35.39    \nframe=   79 fps=0.8 q=45.9 size=     256KiB time=00:00:02.56 bitrate= 817.2kbits/s speed=0.0268x elapsed=0:01:35.91    \nframe=   79 fps=0.8 q=45.9 size=     256KiB time=00:00:02.56 bitrate= 817.2kbits/s speed=0.0266x elapsed=0:01:36.43    \nframe=   80 fps=0.8 q=42.1 size=     256KiB time=00:00:02.60 bitrate= 806.7kbits/s speed=0.0268x elapsed=0:01:36.96    \nframe=   80 fps=0.8 q=42.1 size=     256KiB time=00:00:02.60 bitrate= 806.7kbits/s speed=0.0267x elapsed=0:01:37.50    \nframe=   80 fps=0.8 q=42.1 size=     256KiB time=00:00:02.60 bitrate= 806.7kbits/s speed=0.0265x elapsed=0:01:38.01    \nframe=   80 fps=0.8 q=42.1 size=     256KiB time=00:00:02.60 bitrate= 806.7kbits/s speed=0.0264x elapsed=0:01:38.54    \nframe=   80 fps=0.8 q=42.1 size=     256KiB time=00:00:02.60 bitrate= 806.7kbits/s speed=0.0262x elapsed=0:01:39.08    \nframe=   80 fps=0.8 q=42.1 size=     256KiB time=00:00:02.60 bitrate= 806.7kbits/s speed=0.0261x elapsed=0:01:39.61    \nframe=   81 fps=0.8 q=44.0 size=     256KiB time=00:00:02.63 bitrate= 796.5kbits/s speed=0.0263x elapsed=0:01:40.13    \nframe=   81 fps=0.8 q=44.0 size=     256KiB time=00:00:02.63 bitrate= 796.5kbits/s speed=0.0262x elapsed=0:01:40.67    \nframe=   81 fps=0.8 q=44.0 size=     256KiB time=00:00:02.63 bitrate= 796.5kbits/s speed=0.026x elapsed=0:01:41.20    \nframe=   83 fps=0.8 q=45.8 size=     256KiB time=00:00:02.70 bitrate= 776.9kbits/s speed=0.0265x elapsed=0:01:41.71    \nframe=   83 fps=0.8 q=45.8 size=     256KiB time=00:00:02.70 bitrate= 776.9kbits/s speed=0.0264x elapsed=0:01:42.25    \nframe=   83 fps=0.8 q=45.8 size=     256KiB time=00:00:02.70 bitrate= 776.9kbits/s speed=0.0263x elapsed=0:01:42.80    \nframe=   83 fps=0.8 q=45.8 size=     256KiB time=00:00:02.70 bitrate= 776.9kbits/s speed=0.0261x elapsed=0:01:43.32    \nframe=   83 fps=0.8 q=45.8 size=     256KiB time=00:00:02.70 bitrate= 776.9kbits/s speed=0.026x elapsed=0:01:43.84    \nframe=   84 fps=0.8 q=42.0 size=     256KiB time=00:00:02.73 bitrate= 767.4kbits/s speed=0.0262x elapsed=0:01:44.35    \nframe=   84 fps=0.8 q=42.0 size=     256KiB time=00:00:02.73 bitrate= 767.4kbits/s speed=0.0261x elapsed=0:01:44.87    \nframe=   84 fps=0.8 q=42.0 size=     256KiB time=00:00:02.73 bitrate= 767.4kbits/s speed=0.0259x elapsed=0:01:45.41    \nframe=   85 fps=0.8 q=43.1 size=     256KiB time=00:00:02.76 bitrate= 758.1kbits/s speed=0.0261x elapsed=0:01:45.92    \nframe=   85 fps=0.8 q=43.1 size=     256KiB time=00:00:02.76 bitrate= 758.1kbits/s speed=0.026x elapsed=0:01:46.42    \nframe=   86 fps=0.8 q=45.6 size=     256KiB time=00:00:02.80 bitrate= 749.1kbits/s speed=0.0262x elapsed=0:01:46.95    \nframe=   87 fps=0.8 q=45.6 size=     256KiB time=00:00:02.83 bitrate= 740.3kbits/s speed=0.0264x elapsed=0:01:47.49    \nframe=   88 fps=0.8 q=45.4 size=     256KiB time=00:00:02.86 bitrate= 731.7kbits/s speed=0.0265x elapsed=0:01:48.06    \nframe=   88 fps=0.8 q=45.4 size=     256KiB time=00:00:02.86 bitrate= 731.7kbits/s speed=0.0264x elapsed=0:01:48.63    \nframe=   88 fps=0.8 q=45.4 size=     256KiB time=00:00:02.86 bitrate= 731.7kbits/s speed=0.0263x elapsed=0:01:49.14    \nframe=   88 fps=0.8 q=45.4 size=     256KiB time=00:00:02.86 bitrate= 731.7kbits/s speed=0.0261x elapsed=0:01:49.66    \nframe=   89 fps=0.8 q=41.2 size=     256KiB time=00:00:02.90 bitrate= 723.3kbits/s speed=0.0263x elapsed=0:01:50.18    \nframe=   89 fps=0.8 q=41.2 size=     256KiB time=00:00:02.90 bitrate= 723.3kbits/s speed=0.0262x elapsed=0:01:50.70    \nframe=   90 fps=0.8 q=45.6 size=     256KiB time=00:00:02.93 bitrate= 715.1kbits/s speed=0.0264x elapsed=0:01:51.22    \nframe=   90 fps=0.8 q=45.6 size=     256KiB time=00:00:02.93 bitrate= 715.1kbits/s speed=0.0263x elapsed=0:01:51.72    \nframe=   90 fps=0.8 q=45.6 size=     256KiB time=00:00:02.93 bitrate= 715.1kbits/s speed=0.0261x elapsed=0:01:52.27    \nframe=   90 fps=0.8 q=45.6 size=     256KiB time=00:00:02.93 bitrate= 715.1kbits/s speed=0.026x elapsed=0:01:52.80    \nframe=   91 fps=0.8 q=45.8 size=     256KiB time=00:00:02.96 bitrate= 707.0kbits/s speed=0.0262x elapsed=0:01:53.36    \nframe=   92 fps=0.8 q=46.8 size=     256KiB time=00:00:03.00 bitrate= 699.2kbits/s speed=0.0263x elapsed=0:01:53.87    \nframe=   92 fps=0.8 q=46.8 size=     256KiB time=00:00:03.00 bitrate= 699.2kbits/s speed=0.0262x elapsed=0:01:54.41    \nframe=   93 fps=0.8 q=46.7 size=     256KiB time=00:00:03.03 bitrate= 691.5kbits/s speed=0.0264x elapsed=0:01:54.94    \nframe=   93 fps=0.8 q=46.7 size=     256KiB time=00:00:03.03 bitrate= 691.5kbits/s speed=0.0263x elapsed=0:01:55.46    \nframe=   93 fps=0.8 q=46.7 size=     256KiB time=00:00:03.03 bitrate= 691.5kbits/s speed=0.0262x elapsed=0:01:55.97    \nframe=   94 fps=0.8 q=42.7 size=     256KiB time=00:00:03.06 bitrate= 684.0kbits/s speed=0.0263x elapsed=0:01:56.49    \nframe=   94 fps=0.8 q=42.7 size=     256KiB time=00:00:03.06 bitrate= 684.0kbits/s speed=0.0262x elapsed=0:01:57.02    \nframe=   95 fps=0.8 q=44.9 size=     256KiB time=00:00:03.06 bitrate= 684.0kbits/s speed=0.0261x elapsed=0:01:57.54    \nframe=   95 fps=0.8 q=44.9 size=     256KiB time=00:00:03.10 bitrate= 676.6kbits/s speed=0.0263x elapsed=0:01:58.08    \nframe=   95 fps=0.8 q=44.9 size=     256KiB time=00:00:03.10 bitrate= 676.6kbits/s speed=0.0261x elapsed=0:01:58.60    \nframe=   96 fps=0.8 q=45.8 size=     256KiB time=00:00:03.13 bitrate= 669.4kbits/s speed=0.0263x elapsed=0:01:59.13    \nframe=   96 fps=0.8 q=45.8 size=     256KiB time=00:00:03.13 bitrate= 669.4kbits/s speed=0.0262x elapsed=0:01:59.71    \nframe=   97 fps=0.8 q=46.9 size=     256KiB time=00:00:03.16 bitrate= 662.4kbits/s speed=0.0263x elapsed=0:02:00.23    \nframe=   98 fps=0.8 q=42.1 size=     256KiB time=00:00:03.20 bitrate= 655.5kbits/s speed=0.0265x elapsed=0:02:00.76    \nframe=   99 fps=0.8 q=45.2 size=     256KiB time=00:00:03.23 bitrate= 648.7kbits/s speed=0.0267x elapsed=0:02:01.27    \nframe=  100 fps=0.8 q=46.9 size=     256KiB time=00:00:03.26 bitrate= 642.1kbits/s speed=0.0268x elapsed=0:02:01.82    \nframe=  100 fps=0.8 q=46.9 size=     256KiB time=00:00:03.26 bitrate= 642.1kbits/s speed=0.0267x elapsed=0:02:02.33    \nframe=  100 fps=0.8 q=46.9 size=     256KiB time=00:00:03.26 bitrate= 642.1kbits/s speed=0.0266x elapsed=0:02:02.85    \nframe=  101 fps=0.8 q=42.1 size=     256KiB time=00:00:03.30 bitrate= 635.6kbits/s speed=0.0267x elapsed=0:02:03.37    \nframe=  101 fps=0.8 q=42.1 size=     256KiB time=00:00:03.30 bitrate= 635.6kbits/s speed=0.0266x elapsed=0:02:03.91    \nframe=  101 fps=0.8 q=42.1 size=     256KiB time=00:00:03.30 bitrate= 635.6kbits/s speed=0.0265x elapsed=0:02:04.44    \nframe=  102 fps=0.8 q=44.2 size=     256KiB time=00:00:03.33 bitrate= 629.3kbits/s speed=0.0267x elapsed=0:02:04.96    \nframe=  104 fps=0.8 q=46.9 size=     256KiB time=00:00:03.40 bitrate= 616.9kbits/s speed=0.0271x elapsed=0:02:05.48    \nframe=  104 fps=0.8 q=46.9 size=     256KiB time=00:00:03.40 bitrate= 616.9kbits/s speed=0.027x elapsed=0:02:05.99    \nframe=  105 fps=0.8 q=42.9 size=     256KiB time=00:00:03.43 bitrate= 610.9kbits/s speed=0.0271x elapsed=0:02:06.52    \nframe=  105 fps=0.8 q=42.9 size=     256KiB time=00:00:03.43 bitrate= 610.9kbits/s speed=0.027x elapsed=0:02:07.04    \nframe=  106 fps=0.8 q=45.1 size=     256KiB time=00:00:03.46 bitrate= 605.0kbits/s speed=0.0272x elapsed=0:02:07.57    \nframe=  108 fps=0.8 q=47.0 size=     256KiB time=00:00:03.53 bitrate= 593.6kbits/s speed=0.0276x elapsed=0:02:08.11    \nframe=  108 fps=0.8 q=47.0 size=     256KiB time=00:00:03.53 bitrate= 593.6kbits/s speed=0.0275x elapsed=0:02:08.63    \nframe=  108 fps=0.8 q=47.0 size=     256KiB time=00:00:03.53 bitrate= 593.6kbits/s speed=0.0274x elapsed=0:02:09.17    \nframe=  108 fps=0.8 q=47.0 size=     256KiB time=00:00:03.53 bitrate= 593.6kbits/s speed=0.0272x elapsed=0:02:09.69    \nframe=  109 fps=0.8 q=42.2 size=     256KiB time=00:00:03.56 bitrate= 588.1kbits/s speed=0.0274x elapsed=0:02:10.20    \nframe=  109 fps=0.8 q=42.2 size=     256KiB time=00:00:03.56 bitrate= 588.1kbits/s speed=0.0273x elapsed=0:02:10.73    \nframe=  110 fps=0.8 q=45.5 size=     256KiB time=00:00:03.60 bitrate= 582.6kbits/s speed=0.0274x elapsed=0:02:11.25    \nframe=  110 fps=0.8 q=45.5 size=     256KiB time=00:00:03.60 bitrate= 582.6kbits/s speed=0.0273x elapsed=0:02:11.80    \nframe=  110 fps=0.8 q=45.5 size=     256KiB time=00:00:03.60 bitrate= 582.6kbits/s speed=0.0272x elapsed=0:02:12.36    \nframe=  110 fps=0.8 q=45.5 size=     256KiB time=00:00:03.60 bitrate= 582.6kbits/s speed=0.0271x elapsed=0:02:12.88    \nframe=  111 fps=0.8 q=46.9 size=     256KiB time=00:00:03.63 bitrate= 577.3kbits/s speed=0.0272x elapsed=0:02:13.40    \nframe=  111 fps=0.8 q=46.9 size=     256KiB time=00:00:03.63 bitrate= 577.3kbits/s speed=0.0271x elapsed=0:02:13.94    \nframe=  112 fps=0.8 q=42.4 size=     256KiB time=00:00:03.66 bitrate= 572.0kbits/s speed=0.0273x elapsed=0:02:14.49    \nframe=  112 fps=0.8 q=42.4 size=     256KiB time=00:00:03.66 bitrate= 572.0kbits/s speed=0.0272x elapsed=0:02:15.02    \nframe=  112 fps=0.8 q=42.4 size=     256KiB time=00:00:03.66 bitrate= 572.0kbits/s speed=0.027x elapsed=0:02:15.56    \nframe=  112 fps=0.8 q=42.4 size=     256KiB time=00:00:03.66 bitrate= 572.0kbits/s speed=0.0269x elapsed=0:02:16.09    \nframe=  113 fps=0.8 q=44.6 size=     256KiB time=00:00:03.70 bitrate= 566.9kbits/s speed=0.0271x elapsed=0:02:16.60    \nframe=  113 fps=0.8 q=44.6 size=     256KiB time=00:00:03.70 bitrate= 566.9kbits/s speed=0.027x elapsed=0:02:17.15    \nframe=  114 fps=0.8 q=46.8 size=     256KiB time=00:00:03.73 bitrate= 561.8kbits/s speed=0.0271x elapsed=0:02:17.67    \nframe=  114 fps=0.8 q=46.8 size=     256KiB time=00:00:03.73 bitrate= 561.8kbits/s speed=0.027x elapsed=0:02:18.22    \nframe=  114 fps=0.8 q=46.8 size=     256KiB time=00:00:03.73 bitrate= 561.8kbits/s speed=0.0269x elapsed=0:02:18.75    \nframe=  115 fps=0.8 q=47.0 size=     256KiB time=00:00:03.76 bitrate= 556.9kbits/s speed=0.027x elapsed=0:02:19.27    \nframe=  116 fps=0.8 q=42.7 size=     256KiB time=00:00:03.80 bitrate= 552.0kbits/s speed=0.0272x elapsed=0:02:19.81    \nframe=  117 fps=0.8 q=45.6 size=     256KiB time=00:00:03.80 bitrate= 552.0kbits/s speed=0.0271x elapsed=0:02:20.35    \nframe=  118 fps=0.8 q=46.6 size=     256KiB time=00:00:03.86 bitrate= 542.5kbits/s speed=0.0274x elapsed=0:02:20.88    \nframe=  118 fps=0.8 q=46.6 size=     256KiB time=00:00:03.86 bitrate= 542.5kbits/s speed=0.0273x elapsed=0:02:21.42    \nframe=  118 fps=0.8 q=46.6 size=     256KiB time=00:00:03.86 bitrate= 542.5kbits/s speed=0.0272x elapsed=0:02:21.94    \nframe=  119 fps=0.8 q=42.3 size=     256KiB time=00:00:03.90 bitrate= 537.8kbits/s speed=0.0274x elapsed=0:02:22.46    \nframe=  119 fps=0.8 q=42.3 size=     256KiB time=00:00:03.90 bitrate= 537.8kbits/s speed=0.0273x elapsed=0:02:23.01    \nframe=  119 fps=0.8 q=42.3 size=     256KiB time=00:00:03.90 bitrate= 537.8kbits/s speed=0.0272x elapsed=0:02:23.53    \nframe=  119 fps=0.8 q=42.3 size=     256KiB time=00:00:03.90 bitrate= 537.8kbits/s speed=0.0271x elapsed=0:02:24.08    \nframe=  120 fps=0.8 q=44.9 size=     256KiB time=00:00:03.93 bitrate= 533.3kbits/s speed=0.0272x elapsed=0:02:24.58    \nframe=  120 fps=0.8 q=44.9 size=     256KiB time=00:00:03.93 bitrate= 533.3kbits/s speed=0.0271x elapsed=0:02:25.10    \nframe=  122 fps=0.8 q=46.9 size=     256KiB time=00:00:04.00 bitrate= 524.4kbits/s speed=0.0275x elapsed=0:02:25.62    \nframe=  122 fps=0.8 q=46.9 size=     256KiB time=00:00:04.00 bitrate= 524.4kbits/s speed=0.0274x elapsed=0:02:26.13    \nframe=  122 fps=0.8 q=46.9 size=     256KiB time=00:00:04.00 bitrate= 524.4kbits/s speed=0.0273x elapsed=0:02:26.66    \nframe=  123 fps=0.8 q=41.9 size=     256KiB time=00:00:04.03 bitrate= 520.0kbits/s speed=0.0274x elapsed=0:02:27.20    \nframe=  123 fps=0.8 q=41.9 size=     256KiB time=00:00:04.03 bitrate= 520.0kbits/s speed=0.0273x elapsed=0:02:27.72    \nframe=  123 fps=0.8 q=41.9 size=     256KiB time=00:00:04.03 bitrate= 520.0kbits/s speed=0.0272x elapsed=0:02:28.24    \nframe=  123 fps=0.8 q=41.9 size=     256KiB time=00:00:04.03 bitrate= 520.0kbits/s speed=0.0271x elapsed=0:02:28.78    \nframe=  124 fps=0.8 q=44.9 size=     512KiB time=00:00:04.06 bitrate=1031.5kbits/s speed=0.0272x elapsed=0:02:29.33    \nframe=  124 fps=0.8 q=44.9 size=     512KiB time=00:00:04.06 bitrate=1031.5kbits/s speed=0.0271x elapsed=0:02:29.86    \nframe=  125 fps=0.8 q=46.6 size=     512KiB time=00:00:04.10 bitrate=1023.1kbits/s speed=0.0273x elapsed=0:02:30.38    \nframe=  126 fps=0.8 q=46.8 size=     512KiB time=00:00:04.13 bitrate=1014.8kbits/s speed=0.0274x elapsed=0:02:30.90    \nframe=  127 fps=0.8 q=47.0 size=     512KiB time=00:00:04.16 bitrate=1006.7kbits/s speed=0.0275x elapsed=0:02:31.41    \nframe=  127 fps=0.8 q=47.0 size=     512KiB time=00:00:04.16 bitrate=1006.7kbits/s speed=0.0274x elapsed=0:02:31.94    \nframe=  127 fps=0.8 q=47.0 size=     512KiB time=00:00:04.16 bitrate=1006.7kbits/s speed=0.0273x elapsed=0:02:32.48    \nframe=  127 fps=0.8 q=47.0 size=     512KiB time=00:00:04.16 bitrate=1006.7kbits/s speed=0.0272x elapsed=0:02:33.01    \nframe=  127 fps=0.8 q=47.0 size=     512KiB time=00:00:04.16 bitrate=1006.7kbits/s speed=0.0271x elapsed=0:02:33.53    \nframe=  127 fps=0.8 q=47.0 size=     512KiB time=00:00:04.16 bitrate=1006.7kbits/s speed=0.027x elapsed=0:02:34.06    \nframe=  128 fps=0.8 q=42.3 size=     512KiB time=00:00:04.20 bitrate= 998.7kbits/s speed=0.0272x elapsed=0:02:34.58    \nframe=  128 fps=0.8 q=42.3 size=     512KiB time=00:00:04.20 bitrate= 998.7kbits/s speed=0.0271x elapsed=0:02:35.13    \nframe=  129 fps=0.8 q=43.8 size=     512KiB time=00:00:04.23 bitrate= 990.9kbits/s speed=0.0272x elapsed=0:02:35.65    \nframe=  130 fps=0.8 q=46.7 size=     512KiB time=00:00:04.26 bitrate= 983.1kbits/s speed=0.0273x elapsed=0:02:36.17    \nframe=  130 fps=0.8 q=46.7 size=     512KiB time=00:00:04.26 bitrate= 983.1kbits/s speed=0.0272x elapsed=0:02:36.70    \nframe=  130 fps=0.8 q=46.7 size=     512KiB time=00:00:04.26 bitrate= 983.1kbits/s speed=0.0271x elapsed=0:02:37.24    \nframe=  130 fps=0.8 q=46.7 size=     512KiB time=00:00:04.26 bitrate= 983.1kbits/s speed=0.027x elapsed=0:02:37.76    \nframe=  131 fps=0.8 q=46.7 size=     512KiB time=00:00:04.30 bitrate= 975.5kbits/s speed=0.0272x elapsed=0:02:38.29    \nframe=  132 fps=0.8 q=46.5 size=     512KiB time=00:00:04.33 bitrate= 968.0kbits/s speed=0.0273x elapsed=0:02:38.81    \nframe=  132 fps=0.8 q=46.5 size=     512KiB time=00:00:04.33 bitrate= 968.0kbits/s speed=0.0272x elapsed=0:02:39.32    \nframe=  132 fps=0.8 q=46.5 size=     512KiB time=00:00:04.33 bitrate= 968.0kbits/s speed=0.0271x elapsed=0:02:39.84    \nframe=  133 fps=0.8 q=42.5 size=     512KiB time=00:00:04.36 bitrate= 960.6kbits/s speed=0.0272x elapsed=0:02:40.37    \nframe=  133 fps=0.8 q=42.5 size=     512KiB time=00:00:04.36 bitrate= 960.6kbits/s speed=0.0271x elapsed=0:02:40.88    \nframe=  133 fps=0.8 q=42.5 size=     512KiB time=00:00:04.36 bitrate= 960.6kbits/s speed=0.0271x elapsed=0:02:41.40    \nframe=  133 fps=0.8 q=42.5 size=     512KiB time=00:00:04.36 bitrate= 960.6kbits/s speed=0.027x elapsed=0:02:41.93    \nframe=  134 fps=0.8 q=45.3 size=     512KiB time=00:00:04.40 bitrate= 953.3kbits/s speed=0.0271x elapsed=0:02:42.44    \nframe=  134 fps=0.8 q=45.3 size=     512KiB time=00:00:04.40 bitrate= 953.3kbits/s speed=0.027x elapsed=0:02:42.97    \nframe=  135 fps=0.8 q=46.6 size=     512KiB time=00:00:04.43 bitrate= 946.2kbits/s speed=0.0271x elapsed=0:02:43.50    \nframe=  136 fps=0.8 q=46.7 size=     512KiB time=00:00:04.46 bitrate= 939.1kbits/s speed=0.0272x elapsed=0:02:44.02    \nframe=  137 fps=0.8 q=47.0 size=     512KiB time=00:00:04.50 bitrate= 932.1kbits/s speed=0.0273x elapsed=0:02:44.54    \nframe=  137 fps=0.8 q=47.0 size=     512KiB time=00:00:04.50 bitrate= 932.1kbits/s speed=0.0273x elapsed=0:02:45.06    \nframe=  137 fps=0.8 q=47.0 size=     512KiB time=00:00:04.50 bitrate= 932.1kbits/s speed=0.0272x elapsed=0:02:45.57    \nframe=  137 fps=0.8 q=47.0 size=     512KiB time=00:00:04.50 bitrate= 932.1kbits/s speed=0.0271x elapsed=0:02:46.09    \nframe=  138 fps=0.8 q=42.5 size=     512KiB time=00:00:04.53 bitrate= 925.3kbits/s speed=0.0272x elapsed=0:02:46.61    \nframe=  138 fps=0.8 q=42.5 size=     512KiB time=00:00:04.53 bitrate= 925.3kbits/s speed=0.0271x elapsed=0:02:47.14    \nframe=  138 fps=0.8 q=42.5 size=     512KiB time=00:00:04.53 bitrate= 925.3kbits/s speed=0.027x elapsed=0:02:47.64    \nframe=  139 fps=0.8 q=44.6 size=     512KiB time=00:00:04.56 bitrate= 918.5kbits/s speed=0.0272x elapsed=0:02:48.17    \nframe=  139 fps=0.8 q=44.6 size=     512KiB time=00:00:04.56 bitrate= 918.5kbits/s speed=0.0271x elapsed=0:02:48.70    \nframe=  141 fps=0.8 q=46.8 size=     512KiB time=00:00:04.63 bitrate= 905.3kbits/s speed=0.0274x elapsed=0:02:49.22    \nframe=  141 fps=0.8 q=46.8 size=     512KiB time=00:00:04.63 bitrate= 905.3kbits/s speed=0.0273x elapsed=0:02:49.74    \nframe=  141 fps=0.8 q=46.8 size=     512KiB time=00:00:04.63 bitrate= 905.3kbits/s speed=0.0272x elapsed=0:02:50.25    \nframe=  142 fps=0.8 q=42.5 size=     512KiB time=00:00:04.66 bitrate= 898.9kbits/s speed=0.0273x elapsed=0:02:50.78    \nframe=  143 fps=0.8 q=44.5 size=     512KiB time=00:00:04.70 bitrate= 892.5kbits/s speed=0.0274x elapsed=0:02:51.33    \nframe=  143 fps=0.8 q=44.5 size=     512KiB time=00:00:04.70 bitrate= 892.5kbits/s speed=0.0273x elapsed=0:02:51.86    \nframe=  144 fps=0.8 q=46.7 size=     512KiB time=00:00:04.73 bitrate= 886.2kbits/s speed=0.0275x elapsed=0:02:52.38    \nframe=  145 fps=0.8 q=46.8 size=     512KiB time=00:00:04.76 bitrate= 880.0kbits/s speed=0.0276x elapsed=0:02:52.90    \nframe=  145 fps=0.8 q=46.8 size=     512KiB time=00:00:04.76 bitrate= 880.0kbits/s speed=0.0275x elapsed=0:02:53.41    \nframe=  146 fps=0.8 q=43.3 size=     512KiB time=00:00:04.80 bitrate= 873.9kbits/s speed=0.0276x elapsed=0:02:53.95    \nframe=  146 fps=0.8 q=43.3 size=     512KiB time=00:00:04.80 bitrate= 873.9kbits/s speed=0.0275x elapsed=0:02:54.48    \nframe=  146 fps=0.8 q=43.3 size=     512KiB time=00:00:04.80 bitrate= 873.9kbits/s speed=0.0274x elapsed=0:02:54.99    \nframe=  146 fps=0.8 q=43.3 size=     512KiB time=00:00:04.80 bitrate= 873.9kbits/s speed=0.0273x elapsed=0:02:55.51    \nframe=  147 fps=0.8 q=45.2 size=     512KiB time=00:00:04.83 bitrate= 867.9kbits/s speed=0.0275x elapsed=0:02:56.02    \nframe=  147 fps=0.8 q=45.2 size=     512KiB time=00:00:04.83 bitrate= 867.9kbits/s speed=0.0274x elapsed=0:02:56.54    \nframe=  147 fps=0.8 q=45.2 size=     512KiB time=00:00:04.83 bitrate= 867.9kbits/s speed=0.0273x elapsed=0:02:57.06    \n[mp4 @ 000001d193919740] Starting second pass: moving the moov atom to the beginning of the file\n[out#0/mp4 @ 000001d19390abc0] video:621KiB audio:0KiB subtitle:0KiB other streams:0KiB global headers:2KiB muxing overhead: 0.826335%\nframe=  150 fps=0.8 q=46.4 Lsize=     626KiB time=00:00:04.93 bitrate=1040.0kbits/s speed=0.0278x elapsed=0:02:57.43    \nx265 [info]: frame I:      1, Avg QP:43.84  kb/s: 1901.28 \nx265 [info]: frame P:     37, Avg QP:42.35  kb/s: 2239.81 \nx265 [info]: frame B:    112, Avg QP:45.65  kb/s: 604.79  \nx265 [info]: Weighted P-Frames: Y:24.3% UV:18.9%\n\nencoded 150 frames in 176.78s (0.85 fps), 1016.74 kb/s, Avg QP:44.82\n",
  "seconds": 177.70390582084656,
  "probe_out": {}
}